<svg xmlns="http://www.w3.org/2000/svg" xmlns:xlink="http://www.w3.org/1999/xlink" width="851" zoomAndPan="magnify" viewBox="0 0 638.25 236.249991" height="315" preserveAspectRatio="xMidYMid meet" version="1.0"><defs><g/><clipPath id="fee16fc781"><path d="M 0.636719 39 L 636.867188 39 L 636.867188 213 L 0.636719 213 Z M 0.636719 39 " clip-rule="nonzero"/></clipPath><clipPath id="696c6a0935"><path d="M 0.636719 120 L 208 120 L 208 124 L 0.636719 124 Z M 0.636719 120 " clip-rule="nonzero"/></clipPath><clipPath id="81d941d55a"><path d="M 429 105 L 636.867188 105 L 636.867188 139 L 429 139 Z M 429 105 " clip-rule="nonzero"/></clipPath><clipPath id="f1e4371aac"><rect x="0" width="637" y="0" height="174"/></clipPath></defs><g clip-path="url(#fee16fc781)"><g transform="matrix(1, 0, 0, 1, 0, 39)"><g clip-path="url(#f1e4371aac)"><g fill="#ffffff" fill-opacity="1"><g transform="translate(0.636088, 73.654646)"><g><path d="M 56.53125 0 L 56.53125 -45.515625 L 36.296875 -10.15625 L 32.828125 -10.15625 L 12.515625 -45.515625 L 12.515625 0 L 7 0 L 7 -55.90625 L 12.671875 -55.90625 L 34.484375 -17.640625 L 56.453125 -55.90625 L 62.046875 -55.90625 L 62.046875 0 Z M 56.53125 0 "/></g></g></g><g fill="#ffffff" fill-opacity="1"><g transform="translate(69.682361, 73.654646)"><g><path d="M 24.328125 -55.90625 L 28.96875 -55.90625 L 52.203125 0 L 46.375 0 L 39.125 -17.484375 L 14.015625 -17.484375 L 6.84375 0 L 0.9375 0 Z M 37.875 -21.8125 L 26.609375 -49.4375 L 15.203125 -21.8125 Z M 37.875 -21.8125 "/></g></g><g transform="translate(122.90389, 73.654646)"><g><path d="M 7 0 L 7 -55.90625 L 30.625 -55.90625 C 33.039062 -55.90625 35.242188 -55.40625 37.234375 -54.40625 C 39.234375 -53.40625 40.976562 -52.050781 42.46875 -50.34375 C 43.96875 -48.644531 45.125 -46.757812 45.9375 -44.6875 C 46.75 -42.613281 47.15625 -40.5 47.15625 -38.34375 C 47.15625 -35.664062 46.644531 -33.144531 45.625 -30.78125 C 44.601562 -28.414062 43.160156 -26.421875 41.296875 -24.796875 C 39.429688 -23.171875 37.238281 -22.097656 34.71875 -21.578125 L 48.421875 0 L 42.203125 0 L 29.046875 -20.625 L 12.515625 -20.625 L 12.515625 0 Z M 12.515625 -25.515625 L 30.78125 -25.515625 C 32.988281 -25.515625 34.90625 -26.113281 36.53125 -27.3125 C 38.15625 -28.519531 39.414062 -30.109375 40.3125 -32.078125 C 41.207031 -34.046875 41.65625 -36.132812 41.65625 -38.34375 C 41.65625 -40.601562 41.140625 -42.691406 40.109375 -44.609375 C 39.085938 -46.523438 37.722656 -48.070312 36.015625 -49.25 C 34.316406 -50.425781 32.414062 -51.015625 30.3125 -51.015625 L 12.515625 -51.015625 Z M 12.515625 -25.515625 "/></g></g></g><g fill="#ffffff" fill-opacity="1"><g transform="translate(174.314621, 73.654646)"><g><path d="M 3.3125 -28.34375 C 3.3125 -31.757812 3.898438 -35.101562 5.078125 -38.375 C 6.253906 -41.65625 7.972656 -44.644531 10.234375 -47.34375 C 12.492188 -50.050781 15.273438 -52.207031 18.578125 -53.8125 C 21.890625 -55.414062 25.644531 -56.21875 29.84375 -56.21875 C 34.820312 -56.21875 39.082031 -55.070312 42.625 -52.78125 C 46.175781 -50.5 48.789062 -47.578125 50.46875 -44.015625 L 46.140625 -41.328125 C 44.929688 -43.796875 43.40625 -45.75 41.5625 -47.1875 C 39.726562 -48.632812 37.773438 -49.671875 35.703125 -50.296875 C 33.628906 -50.929688 31.570312 -51.25 29.53125 -51.25 C 26.164062 -51.25 23.195312 -50.578125 20.625 -49.234375 C 18.050781 -47.898438 15.882812 -46.117188 14.125 -43.890625 C 12.375 -41.660156 11.050781 -39.164062 10.15625 -36.40625 C 9.257812 -33.65625 8.8125 -30.863281 8.8125 -28.03125 C 8.8125 -24.9375 9.335938 -21.96875 10.390625 -19.125 C 11.441406 -16.289062 12.910156 -13.785156 14.796875 -11.609375 C 16.691406 -9.429688 18.910156 -7.695312 21.453125 -6.40625 C 24.003906 -5.125 26.773438 -4.484375 29.765625 -4.484375 C 31.859375 -4.484375 34.007812 -4.847656 36.21875 -5.578125 C 38.425781 -6.316406 40.484375 -7.445312 42.390625 -8.96875 C 44.304688 -10.5 45.84375 -12.46875 47 -14.875 L 51.578125 -12.515625 C 50.421875 -9.734375 48.632812 -7.367188 46.21875 -5.421875 C 43.800781 -3.484375 41.109375 -2.015625 38.140625 -1.015625 C 35.179688 -0.0234375 32.285156 0.46875 29.453125 0.46875 C 25.617188 0.46875 22.097656 -0.351562 18.890625 -2 C 15.691406 -3.65625 12.925781 -5.859375 10.59375 -8.609375 C 8.257812 -11.367188 6.460938 -14.46875 5.203125 -17.90625 C 3.941406 -21.34375 3.3125 -24.820312 3.3125 -28.34375 Z M 3.3125 -28.34375 "/></g></g><g transform="translate(228.32345, 73.654646)"><g><path d="M 7 0 L 7 -55.90625 L 12.515625 -55.90625 L 12.515625 0 Z M 7 0 "/></g></g><g transform="translate(247.848508, 73.654646)"><g/></g><g transform="translate(267.924676, 73.654646)"><g><path d="M 56.53125 0 L 56.53125 -45.515625 L 36.296875 -10.15625 L 32.828125 -10.15625 L 12.515625 -45.515625 L 12.515625 0 L 7 0 L 7 -55.90625 L 12.671875 -55.90625 L 34.484375 -17.640625 L 56.453125 -55.90625 L 62.046875 -55.90625 L 62.046875 0 Z M 56.53125 0 "/></g></g><g transform="translate(336.970949, 73.654646)"><g><path d="M 44.5625 -4.875 L 44.5625 0 L 7 0 L 7 -55.90625 L 43.859375 -55.90625 L 43.859375 -51.015625 L 12.515625 -51.015625 L 12.515625 -30.859375 L 39.84375 -30.859375 L 39.84375 -26.21875 L 12.515625 -26.21875 L 12.515625 -4.875 Z M 44.5625 -4.875 "/></g></g><g transform="translate(384.917563, 73.654646)"><g><path d="M 46.6875 -51.015625 L 26.765625 -51.015625 L 26.765625 0 L 21.265625 0 L 21.265625 -51.015625 L 1.34375 -51.015625 L 1.34375 -55.90625 L 46.6875 -55.90625 Z M 46.6875 -51.015625 "/></g></g><g transform="translate(432.942907, 73.654646)"><g><path d="M 2.4375 -4.328125 L 40.46875 -51.015625 L 3.078125 -51.015625 L 3.078125 -55.90625 L 46.84375 -55.90625 L 46.84375 -51.578125 L 9.296875 -4.875 L 46.765625 -4.875 L 46.765625 0 L 2.4375 0 Z M 2.4375 -4.328125 "/></g></g></g><g fill="#ffffff" fill-opacity="1"><g transform="translate(481.125725, 73.654646)"><g><path d="M 29.453125 0.390625 C 25.722656 0.390625 22.253906 -0.40625 19.046875 -2 C 15.847656 -3.601562 13.066406 -5.769531 10.703125 -8.5 C 8.347656 -11.226562 6.523438 -14.269531 5.234375 -17.625 C 3.953125 -20.988281 3.3125 -24.457031 3.3125 -28.03125 C 3.3125 -31.8125 3.953125 -35.394531 5.234375 -38.78125 C 6.523438 -42.164062 8.320312 -45.171875 10.625 -47.796875 C 12.9375 -50.421875 15.664062 -52.492188 18.8125 -54.015625 C 21.96875 -55.535156 25.40625 -56.296875 29.125 -56.296875 C 34.644531 -56.296875 39.132812 -55.164062 42.59375 -52.90625 C 46.0625 -50.65625 48.6875 -47.71875 50.46875 -44.09375 L 46.21875 -41.25 C 44.4375 -44.71875 42.046875 -47.265625 39.046875 -48.890625 C 36.054688 -50.515625 32.722656 -51.328125 29.046875 -51.328125 C 25.953125 -51.328125 23.15625 -50.671875 20.65625 -49.359375 C 18.164062 -48.046875 16.03125 -46.285156 14.25 -44.078125 C 12.46875 -41.878906 11.113281 -39.390625 10.1875 -36.609375 C 9.269531 -33.828125 8.8125 -30.941406 8.8125 -27.953125 C 8.8125 -24.804688 9.335938 -21.828125 10.390625 -19.015625 C 11.441406 -16.203125 12.9375 -13.707031 14.875 -11.53125 C 16.820312 -9.351562 19.066406 -7.644531 21.609375 -6.40625 C 24.160156 -5.175781 26.90625 -4.5625 29.84375 -4.5625 C 33.25 -4.5625 36.472656 -5.414062 39.515625 -7.125 C 42.566406 -8.832031 45.484375 -11.46875 48.265625 -15.03125 L 48.265625 -9.21875 C 42.960938 -2.8125 36.691406 0.390625 29.453125 0.390625 Z M 47.390625 -23.234375 L 34.953125 -23.234375 L 34.953125 -27.484375 L 52.046875 -27.484375 L 52.046875 0 L 47.390625 0 Z M 47.390625 -23.234375 "/></g></g></g><g fill="#ffffff" fill-opacity="1"><g transform="translate(537.496467, 73.654646)"><g><path d="M 44.5625 -4.875 L 44.5625 0 L 7 0 L 7 -55.90625 L 43.859375 -55.90625 L 43.859375 -51.015625 L 12.515625 -51.015625 L 12.515625 -30.859375 L 39.84375 -30.859375 L 39.84375 -26.21875 L 12.515625 -26.21875 L 12.515625 -4.875 Z M 44.5625 -4.875 "/></g></g></g><g fill="#ffffff" fill-opacity="1"><g transform="translate(585.443087, 73.654646)"><g><path d="M 7 0 L 7 -55.90625 L 30.625 -55.90625 C 33.039062 -55.90625 35.242188 -55.40625 37.234375 -54.40625 C 39.234375 -53.40625 40.976562 -52.050781 42.46875 -50.34375 C 43.96875 -48.644531 45.125 -46.757812 45.9375 -44.6875 C 46.75 -42.613281 47.15625 -40.5 47.15625 -38.34375 C 47.15625 -35.664062 46.644531 -33.144531 45.625 -30.78125 C 44.601562 -28.414062 43.160156 -26.421875 41.296875 -24.796875 C 39.429688 -23.171875 37.238281 -22.097656 34.71875 -21.578125 L 48.421875 0 L 42.203125 0 L 29.046875 -20.625 L 12.515625 -20.625 L 12.515625 0 Z M 12.515625 -25.515625 L 30.78125 -25.515625 C 32.988281 -25.515625 34.90625 -26.113281 36.53125 -27.3125 C 38.15625 -28.519531 39.414062 -30.109375 40.3125 -32.078125 C 41.207031 -34.046875 41.65625 -36.132812 41.65625 -38.34375 C 41.65625 -40.601562 41.140625 -42.691406 40.109375 -44.609375 C 39.085938 -46.523438 37.722656 -48.070312 36.015625 -49.25 C 34.316406 -50.425781 32.414062 -51.015625 30.3125 -51.015625 L 12.515625 -51.015625 Z M 12.515625 -25.515625 "/></g></g></g><g fill="#ffffff" fill-opacity="1"><g transform="translate(206.335975, 134.272452)"><g><path d="M 86.421875 -22.125 C 88.773438 -22.445312 90.820312 -22.707031 92.5625 -22.90625 C 94.300781 -23.101562 95.628906 -23.222656 96.546875 -23.265625 C 96.828125 -23.222656 96.90625 -23.0625 96.78125 -22.78125 C 96.664062 -22.507812 96.488281 -22.332031 96.25 -22.25 C 95.570312 -22.207031 94.242188 -22.054688 92.265625 -21.796875 C 90.285156 -21.535156 88.054688 -21.226562 85.578125 -20.875 C 83.453125 -17.394531 81.347656 -13.941406 79.265625 -10.515625 C 77.191406 -7.097656 75.234375 -3.820312 73.390625 -0.6875 C 71.554688 2.445312 69.929688 5.320312 68.515625 7.9375 C 67.097656 10.5625 66 12.800781 65.21875 14.65625 C 64.4375 16.519531 64.066406 17.890625 64.109375 18.765625 C 64.148438 19.648438 64.707031 19.910156 65.78125 19.546875 C 67.382812 18.984375 69.253906 18.019531 71.390625 16.65625 C 73.523438 15.300781 75.8125 13.6875 78.25 11.8125 C 80.695312 9.9375 83.175781 7.914062 85.6875 5.75 C 88.207031 3.59375 90.664062 1.445312 93.0625 -0.6875 C 95.46875 -2.820312 97.675781 -4.816406 99.6875 -6.671875 C 101.707031 -8.535156 103.4375 -10.128906 104.875 -11.453125 C 106.320312 -12.773438 107.34375 -13.675781 107.9375 -14.15625 C 108.144531 -14.3125 108.382812 -14.367188 108.65625 -14.328125 C 108.9375 -14.285156 109.039062 -14.1875 108.96875 -14.03125 C 107.320312 -12.550781 105.390625 -10.789062 103.171875 -8.75 C 100.953125 -6.71875 98.5625 -4.550781 96 -2.25 C 93.445312 0.0507812 90.832031 2.359375 88.15625 4.671875 C 85.476562 6.992188 82.859375 9.179688 80.296875 11.234375 C 77.734375 13.296875 75.332031 15.097656 73.09375 16.640625 C 70.863281 18.179688 68.914062 19.320312 67.25 20.0625 C 65.59375 20.800781 64.34375 21.007812 63.5 20.6875 C 62.226562 20.164062 61.628906 19.054688 61.703125 17.359375 C 61.785156 15.660156 62.363281 13.488281 63.4375 10.84375 C 64.519531 8.207031 65.960938 5.238281 67.765625 1.9375 C 69.566406 -1.351562 71.578125 -4.875 73.796875 -8.625 C 76.015625 -12.382812 78.28125 -16.226562 80.59375 -20.15625 C 77.675781 -19.675781 74.773438 -19.101562 71.890625 -18.4375 C 69.015625 -17.78125 66.03125 -17.03125 62.9375 -16.1875 C 59.84375 -15.351562 56.453125 -14.414062 52.765625 -13.375 C 50.535156 -9.738281 48.316406 -6.191406 46.109375 -2.734375 C 43.910156 0.722656 41.875 3.960938 40 6.984375 C 38.125 10.003906 36.546875 12.648438 35.265625 14.921875 C 33.984375 17.203125 33.144531 19.003906 32.75 20.328125 C 32.46875 21.210938 32.015625 21.832031 31.390625 22.1875 C 30.773438 22.550781 30.195312 22.617188 29.65625 22.390625 C 29.113281 22.171875 28.84375 21.703125 28.84375 20.984375 C 28.84375 19.910156 29.367188 18.289062 30.421875 16.125 C 31.484375 13.96875 32.9375 11.398438 34.78125 8.421875 C 36.625 5.441406 38.691406 2.210938 40.984375 -1.265625 C 43.285156 -4.742188 45.65625 -8.335938 48.09375 -12.046875 C 43.257812 -10.609375 38.679688 -9.03125 34.359375 -7.3125 C 34.160156 -7.269531 34.039062 -7.398438 34 -7.703125 C 33.957031 -8.003906 34.140625 -8.234375 34.546875 -8.390625 C 36.785156 -9.316406 39.113281 -10.175781 41.53125 -10.96875 C 43.945312 -11.769531 46.375 -12.53125 48.8125 -13.25 C 51.007812 -16.644531 53.144531 -20.019531 55.21875 -23.375 C 57.300781 -26.738281 59.222656 -30 60.984375 -33.15625 C 62.742188 -36.320312 64.222656 -39.265625 65.421875 -41.984375 C 66.617188 -44.703125 67.425781 -47.097656 67.84375 -49.171875 C 68.269531 -51.253906 68.179688 -52.929688 67.578125 -54.203125 C 66.984375 -55.484375 65.765625 -56.226562 63.921875 -56.4375 C 61.804688 -56.675781 59.554688 -56.320312 57.171875 -55.375 C 54.796875 -54.4375 52.398438 -53.066406 49.984375 -51.265625 C 47.566406 -49.472656 45.257812 -47.382812 43.0625 -45 C 40.863281 -42.625 38.894531 -40.113281 37.15625 -37.46875 C 35.414062 -34.832031 34.046875 -32.238281 33.046875 -29.6875 C 35.566406 -28.007812 37.351562 -26.289062 38.40625 -24.53125 C 39.46875 -22.769531 40 -21.066406 40 -19.421875 C 40 -17.785156 39.648438 -16.304688 38.953125 -14.984375 C 38.253906 -13.671875 37.394531 -12.59375 36.375 -11.75 C 35.351562 -10.914062 34.382812 -10.4375 33.46875 -10.3125 C 31.863281 -10.113281 30.570312 -10.644531 29.59375 -11.90625 C 28.613281 -13.164062 28.222656 -15.210938 28.421875 -18.046875 C 28.617188 -20.890625 29.640625 -24.585938 31.484375 -29.140625 C 28.921875 -30.378906 26.421875 -30.925781 23.984375 -30.78125 C 21.546875 -30.644531 19.316406 -30.023438 17.296875 -28.921875 C 15.273438 -27.828125 13.566406 -26.441406 12.171875 -24.765625 C 10.773438 -23.085938 9.828125 -21.304688 9.328125 -19.421875 C 8.828125 -17.546875 8.875 -15.769531 9.46875 -14.09375 L 7.921875 -14.09375 C 7.554688 -16.09375 7.753906 -18.117188 8.515625 -20.171875 C 9.273438 -22.234375 10.460938 -24.125 12.078125 -25.84375 C 13.703125 -27.5625 15.59375 -28.957031 17.75 -30.03125 C 19.90625 -31.113281 22.203125 -31.695312 24.640625 -31.78125 C 27.085938 -31.863281 29.53125 -31.265625 31.96875 -29.984375 C 33.164062 -32.859375 34.703125 -35.675781 36.578125 -38.4375 C 38.460938 -41.195312 40.539062 -43.753906 42.8125 -46.109375 C 45.09375 -48.472656 47.472656 -50.523438 49.953125 -52.265625 C 52.429688 -54.003906 54.898438 -55.332031 57.359375 -56.25 C 59.816406 -57.164062 62.144531 -57.546875 64.34375 -57.390625 C 66.46875 -57.234375 67.957031 -56.550781 68.8125 -55.34375 C 69.675781 -54.144531 70.046875 -52.515625 69.921875 -50.453125 C 69.804688 -48.398438 69.273438 -46.023438 68.328125 -43.328125 C 67.390625 -40.628906 66.160156 -37.707031 64.640625 -34.5625 C 63.128906 -31.425781 61.421875 -28.171875 59.515625 -24.796875 C 57.617188 -21.421875 55.628906 -18.03125 53.546875 -14.625 C 57.265625 -15.664062 60.671875 -16.597656 63.765625 -17.421875 C 66.867188 -18.242188 69.835938 -18.972656 72.671875 -19.609375 C 75.515625 -20.242188 78.394531 -20.800781 81.3125 -21.28125 C 83.15625 -24.207031 84.984375 -27.175781 86.796875 -30.1875 C 88.617188 -33.207031 90.347656 -36.132812 91.984375 -38.96875 C 93.628906 -41.8125 95.097656 -44.429688 96.390625 -46.828125 C 97.691406 -49.234375 98.742188 -51.273438 99.546875 -52.953125 C 100.347656 -54.628906 100.804688 -55.789062 100.921875 -56.4375 C 101.128906 -57.269531 101.582031 -57.835938 102.28125 -58.140625 C 102.976562 -58.441406 103.625 -58.5 104.21875 -58.3125 C 104.820312 -58.132812 105.046875 -57.726562 104.890625 -57.09375 C 104.960938 -56.207031 104.488281 -54.625 103.46875 -52.34375 C 102.457031 -50.070312 101.0625 -47.328125 99.28125 -44.109375 C 97.5 -40.890625 95.5 -37.390625 93.28125 -33.609375 C 91.0625 -29.835938 88.773438 -26.007812 86.421875 -22.125 Z M 34.1875 -11.15625 C 34.78125 -11.269531 35.457031 -11.707031 36.21875 -12.46875 C 36.976562 -13.226562 37.609375 -14.195312 38.109375 -15.375 C 38.609375 -16.5625 38.828125 -17.882812 38.765625 -19.34375 C 38.710938 -20.800781 38.203125 -22.328125 37.234375 -23.921875 C 36.273438 -25.523438 34.675781 -27.109375 32.4375 -28.671875 C 31 -24.828125 30.097656 -21.710938 29.734375 -19.328125 C 29.378906 -16.953125 29.390625 -15.132812 29.765625 -13.875 C 30.148438 -12.625 30.75 -11.804688 31.5625 -11.421875 C 32.382812 -11.046875 33.257812 -10.957031 34.1875 -11.15625 Z M 34.1875 -11.15625 "/></g></g></g><g fill="#ffffff" fill-opacity="1"><g transform="translate(308.285117, 134.272452)"><g><path d="M 18.65625 -23.328125 C 20.375 -23.328125 21.222656 -22.597656 21.203125 -21.140625 C 21.179688 -19.679688 20.453125 -17.875 19.015625 -15.71875 C 18.847656 -15.71875 18.710938 -15.707031 18.609375 -15.6875 C 18.515625 -15.664062 18.390625 -15.675781 18.234375 -15.71875 C 18.992188 -16.789062 19.5625 -17.863281 19.9375 -18.9375 C 20.320312 -20.019531 20.398438 -20.910156 20.171875 -21.609375 C 19.953125 -22.316406 19.328125 -22.609375 18.296875 -22.484375 C 17.410156 -22.410156 16.40625 -21.882812 15.28125 -20.90625 C 14.164062 -19.925781 12.988281 -18.675781 11.75 -17.15625 C 10.507812 -15.632812 9.300781 -13.960938 8.125 -12.140625 C 6.945312 -10.328125 5.882812 -8.519531 4.9375 -6.71875 C 4 -4.914062 3.25 -3.253906 2.6875 -1.734375 C 2.132812 -0.210938 1.847656 1.035156 1.828125 2.015625 C 1.804688 2.992188 2.15625 3.519531 2.875 3.59375 C 3.957031 3.757812 5.195312 3.472656 6.59375 2.734375 C 8 1.992188 9.421875 0.984375 10.859375 -0.296875 C 12.296875 -1.578125 13.625 -2.957031 14.84375 -4.4375 C 16.0625 -5.914062 17.050781 -7.316406 17.8125 -8.640625 C 17.09375 -8.921875 16.507812 -9.398438 16.0625 -10.078125 C 15.625 -10.753906 15.445312 -11.492188 15.53125 -12.296875 C 15.613281 -13.097656 16.050781 -13.796875 16.84375 -14.390625 C 17.601562 -14.992188 18.3125 -15.132812 18.96875 -14.8125 C 19.632812 -14.488281 20.035156 -13.835938 20.171875 -12.859375 C 20.316406 -11.878906 19.96875 -10.648438 19.125 -9.171875 C 20.207031 -8.734375 21.535156 -8.601562 23.109375 -8.78125 C 24.691406 -8.96875 26.398438 -9.488281 28.234375 -10.34375 C 30.078125 -11.207031 31.898438 -12.4375 33.703125 -14.03125 C 33.898438 -14.1875 34.164062 -14.273438 34.5 -14.296875 C 34.84375 -14.316406 34.976562 -14.25 34.90625 -14.09375 C 31.582031 -11.175781 28.472656 -9.296875 25.578125 -8.453125 C 22.679688 -7.617188 20.351562 -7.519531 18.59375 -8.15625 C 17.789062 -6.71875 16.738281 -5.226562 15.4375 -3.6875 C 14.144531 -2.144531 12.738281 -0.738281 11.21875 0.53125 C 9.695312 1.8125 8.175781 2.8125 6.65625 3.53125 C 5.132812 4.257812 3.734375 4.539062 2.453125 4.375 C 1.097656 4.175781 0.203125 3.535156 -0.234375 2.453125 C -0.679688 1.378906 -0.734375 0.00390625 -0.390625 -1.671875 C -0.046875 -3.359375 0.570312 -5.160156 1.46875 -7.078125 C 2.363281 -8.992188 3.484375 -10.910156 4.828125 -12.828125 C 6.171875 -14.753906 7.617188 -16.503906 9.171875 -18.078125 C 10.734375 -19.660156 12.320312 -20.929688 13.9375 -21.890625 C 15.5625 -22.847656 17.132812 -23.328125 18.65625 -23.328125 Z M 17.15625 -13.671875 C 16.75 -13.273438 16.578125 -12.773438 16.640625 -12.171875 C 16.703125 -11.578125 16.898438 -11.035156 17.234375 -10.546875 C 17.578125 -10.066406 17.945312 -9.75 18.34375 -9.59375 C 18.945312 -10.75 19.195312 -11.707031 19.09375 -12.46875 C 19 -13.226562 18.75 -13.71875 18.34375 -13.9375 C 17.945312 -14.15625 17.550781 -14.066406 17.15625 -13.671875 Z M 17.15625 -13.671875 "/></g></g></g><g fill="#ffffff" fill-opacity="1"><g transform="translate(335.871348, 134.272452)"><g><path d="M 26.6875 0.84375 C 25.925781 2.5625 25.984375 3.726562 26.859375 4.34375 C 27.742188 4.96875 29.285156 4.71875 31.484375 3.59375 C 32.804688 2.914062 34.296875 1.976562 35.953125 0.78125 C 37.609375 -0.414062 39.328125 -1.734375 41.109375 -3.171875 C 42.890625 -4.617188 44.617188 -6.050781 46.296875 -7.46875 C 47.972656 -8.882812 49.476562 -10.191406 50.8125 -11.390625 C 52.15625 -12.585938 53.226562 -13.507812 54.03125 -14.15625 C 54.226562 -14.269531 54.46875 -14.328125 54.75 -14.328125 C 55.03125 -14.328125 55.128906 -14.25 55.046875 -14.09375 C 53.765625 -13.007812 52.203125 -11.65625 50.359375 -10.03125 C 48.523438 -8.414062 46.554688 -6.726562 44.453125 -4.96875 C 42.359375 -3.21875 40.269531 -1.550781 38.1875 0.03125 C 36.113281 1.613281 34.179688 2.898438 32.390625 3.890625 C 30.742188 4.859375 29.226562 5.398438 27.84375 5.515625 C 26.46875 5.640625 25.441406 5.320312 24.765625 4.5625 C 24.085938 3.800781 23.945312 2.582031 24.34375 0.90625 C 24.707031 -0.5 25.328125 -2.019531 26.203125 -3.65625 C 27.085938 -5.289062 28.109375 -6.96875 29.265625 -8.6875 C 30.421875 -10.414062 31.597656 -12.066406 32.796875 -13.640625 C 34.003906 -15.222656 35.097656 -16.648438 36.078125 -17.921875 C 37.054688 -19.203125 37.800781 -20.234375 38.3125 -21.015625 C 38.832031 -21.796875 38.992188 -22.226562 38.796875 -22.3125 C 37.960938 -22.382812 36.851562 -21.972656 35.46875 -21.078125 C 34.09375 -20.179688 32.5625 -18.953125 30.875 -17.390625 C 29.195312 -15.828125 27.46875 -14.113281 25.6875 -12.25 C 23.914062 -10.394531 22.171875 -8.535156 20.453125 -6.671875 C 18.734375 -4.816406 17.15625 -3.132812 15.71875 -1.625 C 14.832031 -0.9375 14.117188 -0.710938 13.578125 -0.953125 C 13.035156 -1.191406 12.925781 -1.796875 13.25 -2.765625 C 13.570312 -3.722656 14.082031 -4.859375 14.78125 -6.171875 C 15.476562 -7.492188 16.273438 -8.894531 17.171875 -10.375 C 18.078125 -11.851562 18.96875 -13.3125 19.84375 -14.75 C 20.726562 -16.1875 21.519531 -17.492188 22.21875 -18.671875 C 22.914062 -19.859375 23.425781 -20.800781 23.75 -21.5 C 24.070312 -22.195312 24.09375 -22.546875 23.8125 -22.546875 C 22.445312 -22.585938 20.703125 -21.65625 18.578125 -19.75 C 16.460938 -17.851562 13.835938 -14.945312 10.703125 -11.03125 C 7.566406 -7.113281 3.800781 -2.097656 -0.59375 4.015625 C -0.875 4.421875 -1.285156 4.78125 -1.828125 5.09375 C -2.367188 5.414062 -2.898438 5.632812 -3.421875 5.75 C -3.941406 5.875 -4.320312 5.835938 -4.5625 5.640625 C -4.800781 5.441406 -4.78125 5.039062 -4.5 4.4375 C -3.65625 2.832031 -2.773438 1.171875 -1.859375 -0.546875 C -0.941406 -2.265625 0.15625 -4.234375 1.4375 -6.453125 C 2.71875 -8.671875 4.257812 -11.335938 6.0625 -14.453125 C 6.375 -15.015625 6.828125 -15.472656 7.421875 -15.828125 C 8.023438 -16.191406 8.628906 -16.441406 9.234375 -16.578125 C 9.835938 -16.722656 10.273438 -16.679688 10.546875 -16.453125 C 10.828125 -16.234375 10.8125 -15.785156 10.5 -15.109375 C 9.5 -13.546875 8.65625 -12.222656 7.96875 -11.140625 C 7.289062 -10.066406 6.679688 -9.070312 6.140625 -8.15625 C 5.609375 -7.238281 5.03125 -6.269531 4.40625 -5.25 C 3.789062 -4.226562 3.0625 -3.019531 2.21875 -1.625 C 5.695312 -6.175781 8.734375 -10.050781 11.328125 -13.25 C 13.929688 -16.445312 16.257812 -18.90625 18.3125 -20.625 C 20.375 -22.34375 22.328125 -23.242188 24.171875 -23.328125 C 25.367188 -23.242188 26.085938 -22.800781 26.328125 -22 C 26.566406 -21.207031 26.4375 -20.140625 25.9375 -18.796875 C 25.4375 -17.460938 24.6875 -15.941406 23.6875 -14.234375 C 22.6875 -12.535156 21.535156 -10.75 20.234375 -8.875 C 18.941406 -7 17.613281 -5.117188 16.25 -3.234375 C 17.132812 -4.160156 18.285156 -5.398438 19.703125 -6.953125 C 21.117188 -8.515625 22.664062 -10.191406 24.34375 -11.984375 C 26.019531 -13.785156 27.738281 -15.515625 29.5 -17.171875 C 31.257812 -18.835938 32.945312 -20.21875 34.5625 -21.3125 C 36.1875 -22.414062 37.597656 -23.023438 38.796875 -23.140625 C 39.117188 -23.179688 39.476562 -23.128906 39.875 -22.984375 C 40.28125 -22.847656 40.601562 -22.582031 40.84375 -22.1875 C 41.082031 -21.789062 41.128906 -21.210938 40.984375 -20.453125 C 40.847656 -19.691406 40.378906 -18.710938 39.578125 -17.515625 C 38.660156 -16.078125 37.59375 -14.566406 36.375 -12.984375 C 35.15625 -11.398438 33.914062 -9.796875 32.65625 -8.171875 C 31.394531 -6.554688 30.234375 -4.976562 29.171875 -3.4375 C 28.109375 -1.90625 27.28125 -0.476562 26.6875 0.84375 Z M 26.6875 0.84375 "/></g></g></g><g fill="#ffffff" fill-opacity="1"><g transform="translate(383.667502, 134.272452)"><g><path d="M 6.71875 1.5 C 7.832031 1.21875 9.148438 0.609375 10.671875 -0.328125 C 12.191406 -1.265625 13.789062 -2.375 15.46875 -3.65625 C 17.144531 -4.9375 18.789062 -6.253906 20.40625 -7.609375 C 22.03125 -8.972656 23.503906 -10.242188 24.828125 -11.421875 C 26.148438 -12.597656 27.207031 -13.507812 28 -14.15625 C 28.207031 -14.269531 28.445312 -14.328125 28.71875 -14.328125 C 29 -14.328125 29.101562 -14.25 29.03125 -14.09375 C 27.988281 -13.207031 26.742188 -12.132812 25.296875 -10.875 C 23.859375 -9.625 22.300781 -8.296875 20.625 -6.890625 C 18.945312 -5.492188 17.257812 -4.15625 15.5625 -2.875 C 13.863281 -1.59375 12.234375 -0.484375 10.671875 0.453125 C 9.109375 1.390625 7.726562 2.019531 6.53125 2.34375 C 4.894531 2.457031 3.6875 2.09375 2.90625 1.25 C 2.125 0.414062 1.722656 -0.75 1.703125 -2.25 C 1.679688 -3.75 1.976562 -5.425781 2.59375 -7.28125 C 3.21875 -9.144531 4.097656 -11.046875 5.234375 -12.984375 C 6.378906 -14.921875 7.722656 -16.757812 9.265625 -18.5 C 10.804688 -20.238281 12.472656 -21.707031 14.265625 -22.90625 C 16.347656 -24.300781 18.054688 -25.039062 19.390625 -25.125 C 20.734375 -25.207031 21.613281 -24.859375 22.03125 -24.078125 C 22.457031 -23.296875 22.316406 -22.285156 21.609375 -21.046875 C 20.910156 -19.804688 19.550781 -18.535156 17.53125 -17.234375 C 15.519531 -15.941406 12.753906 -14.832031 9.234375 -13.90625 C 7.117188 -10.46875 5.648438 -7.539062 4.828125 -5.125 C 4.003906 -2.707031 3.78125 -0.921875 4.15625 0.234375 C 4.539062 1.398438 5.394531 1.820312 6.71875 1.5 Z M 10.015625 -14.9375 C 12.929688 -15.726562 15.226562 -16.625 16.90625 -17.625 C 18.59375 -18.625 19.785156 -19.601562 20.484375 -20.5625 C 21.179688 -21.53125 21.507812 -22.34375 21.46875 -23 C 21.425781 -23.65625 21.144531 -24.046875 20.625 -24.171875 C 19.789062 -24.242188 18.890625 -23.96875 17.921875 -23.34375 C 16.960938 -22.726562 15.992188 -21.929688 15.015625 -20.953125 C 14.035156 -19.972656 13.113281 -18.941406 12.25 -17.859375 C 11.394531 -16.785156 10.648438 -15.8125 10.015625 -14.9375 Z M 10.015625 -14.9375 "/></g></g></g><g fill="#ffffff" fill-opacity="1"><g transform="translate(405.556576, 134.272452)"><g><path d="M -1.3125 15.109375 C -3.113281 15.472656 -4.453125 15.300781 -5.328125 14.59375 C -6.210938 13.894531 -6.625 12.882812 -6.5625 11.5625 C -6.507812 10.25 -5.960938 8.800781 -4.921875 7.21875 C -3.878906 5.644531 -2.335938 4.140625 -0.296875 2.703125 C 1.742188 1.265625 4.28125 0.0820312 7.3125 -0.84375 C 7.195312 -1.675781 7.035156 -2.710938 6.828125 -3.953125 C 6.628906 -5.191406 6.441406 -6.519531 6.265625 -7.9375 C 6.085938 -9.363281 5.957031 -10.71875 5.875 -12 C 5.71875 -14.4375 6.207031 -16.613281 7.34375 -18.53125 C 8.488281 -20.445312 10 -22.003906 11.875 -23.203125 C 13.75 -24.398438 15.75 -25.101562 17.875 -25.3125 C 19.507812 -25.507812 20.675781 -25.164062 21.375 -24.28125 C 22.070312 -23.40625 22.222656 -22.253906 21.828125 -20.828125 C 21.429688 -19.410156 20.390625 -17.945312 18.703125 -16.4375 L 17.578125 -16.4375 C 19.328125 -17.875 20.390625 -19.257812 20.765625 -20.59375 C 21.148438 -21.9375 21.03125 -22.988281 20.40625 -23.75 C 19.789062 -24.507812 18.828125 -24.726562 17.515625 -24.40625 C 16.109375 -24.082031 14.753906 -23.460938 13.453125 -22.546875 C 12.160156 -21.628906 11.132812 -20.476562 10.375 -19.09375 C 9.613281 -17.71875 9.332031 -16.171875 9.53125 -14.453125 C 9.65625 -13.128906 9.816406 -11.878906 10.015625 -10.703125 C 10.210938 -9.523438 10.410156 -8.285156 10.609375 -6.984375 C 10.816406 -5.679688 10.957031 -4.191406 11.03125 -2.515625 C 13.03125 -3.191406 15.207031 -4.0625 17.5625 -5.125 C 19.925781 -6.1875 22.316406 -7.46875 24.734375 -8.96875 C 27.148438 -10.46875 29.421875 -12.175781 31.546875 -14.09375 C 32.066406 -14.414062 32.445312 -14.535156 32.6875 -14.453125 C 32.925781 -14.367188 32.925781 -14.226562 32.6875 -14.03125 C 29.96875 -11.632812 27.265625 -9.632812 24.578125 -8.03125 C 21.898438 -6.4375 19.410156 -5.148438 17.109375 -4.171875 C 14.816406 -3.191406 12.8125 -2.398438 11.09375 -1.796875 C 11.09375 -0.078125 10.851562 1.675781 10.375 3.46875 C 9.894531 5.269531 9.144531 6.976562 8.125 8.59375 C 7.101562 10.21875 5.800781 11.597656 4.21875 12.734375 C 2.644531 13.878906 0.800781 14.671875 -1.3125 15.109375 Z M -0.484375 14.15625 C 0.359375 13.914062 1.226562 13.34375 2.125 12.4375 C 3.03125 11.539062 3.867188 10.429688 4.640625 9.109375 C 5.421875 7.796875 6.0625 6.335938 6.5625 4.734375 C 7.0625 3.140625 7.3125 1.519531 7.3125 -0.125 C 4.394531 0.800781 1.976562 1.960938 0.0625 3.359375 C -1.851562 4.753906 -3.269531 6.179688 -4.1875 7.640625 C -5.113281 9.097656 -5.578125 10.40625 -5.578125 11.5625 C -5.578125 12.726562 -5.144531 13.582031 -4.28125 14.125 C -3.425781 14.664062 -2.160156 14.675781 -0.484375 14.15625 Z M -0.484375 14.15625 "/></g></g></g><g clip-path="url(#696c6a0935)"><path stroke-linecap="butt" transform="matrix(1.405894, 0, 0, 1.405894, 0.636088, 120.916452)" fill="none" stroke-linejoin="miter" d="M 0.000448588 1.001332 L 146.312474 1.001332 " stroke="#ffffff" stroke-width="2" stroke-opacity="1" stroke-miterlimit="4"/></g><g clip-path="url(#81d941d55a)"><path stroke-linecap="butt" transform="matrix(1.405856, -0.0103504, 0.0103504, 1.405856, 445.88821, 120.916481)" fill="none" stroke-linejoin="miter" d="M -0.0000970264 1.001338 L 135.829614 1.001083 " stroke="#ffffff" stroke-width="2" stroke-opacity="1" stroke-miterlimit="4"/></g></g></g></g></svg>